<!-- <svg xmlns="http://www.w3.org/2000/svg" viewBox="0 0 120 119"><path fill="#1585d5" d="M0 61h59v58H0V61Zm61 0v58h59V61H61Zm-2-3H0V0h59v58Zm2 0h59V0H61v58Z"/></svg> -->
<svg xmlns="http://www.w3.org/2000/svg" viewBox="0 0 1053 1065"><path fill="#00b5e2" d="M0 833.02c0-10.71.02-442.41 0-533.03C43.75 185.5 169.74 18.17 407.48 0c148.85.02 302.11 0 302.11 0 79.16 2.38 156.22 5.44 165.3 7 93.47 9.55 166.02 94.7 173.02 178.91.06 4.37 1.5 74 3 111.88 1.59 69.27 3.53 287.96 1.13 329.37C1035 883 828.49 1053.14 605.21 1064.01L386 1064c-28.27-10.91-19.35-41.15.57-48.47 12.25-4.17 278.99-99.41 318.99-124.95C800.55 844.73 831.67 720 844 611.33c3.25-102.58 3.02-162.73-35.31-187.4-23.96-15.84-44.14-12.84-84.31-17.84-100.93-7.91-180.12-7.7-201.39-7.54-44.68-9.74-49.43-39.74-50-54.13 2.39-25.42 5.63-25.04 6.95-72.98C479.5 194.5 460.5 146 429.62 95.25c-24.87-34.87-82.74-19.5-85 30.19-1.17 220.38-41.62 222.06-94 479.96-2.84 29.99-25.87 109.35-107.89 152.69C6.28 831.97 6.12 832.97 0 833.02Z"/></svg>